<svg xmlns="http://www.w3.org/2000/svg" version="1.1" xmlns:xlink="http://www.w3.org/1999/xlink" xmlns:svgjs="http://svgjs.dev/svgjs" width="1500" height="1500" viewBox="0 0 1500 1500"><rect width="1500" height="1500" fill="#89939e"></rect><g transform="matrix(0.6666666666666666,0,0,0.6666666666666666,249.96301490563644,213.94301075268822)"><svg viewBox="0 0 232 248" data-background-color="#89939e" preserveAspectRatio="xMidYMid meet" height="1603" width="1500" xmlns="http://www.w3.org/2000/svg" xmlns:xlink="http://www.w3.org/1999/xlink"><g id="tight-bounds" transform="matrix(1,0,0,1,0.008580541892342808,0.4000000000000057)"><svg viewBox="0 0 231.9828389162153 247.2" height="247.2" width="231.9828389162153"><g><svg viewBox="0 0 395.52 421.4645551230291" height="247.2" width="231.9828389162153"><g transform="matrix(1,0,0,1,0,284.1233177129571)"><svg viewBox="0 0 395.52 137.34123741007195" height="137.34123741007195" width="395.52"><g id="textblocktransform"><svg viewBox="0 0 395.52 137.34123741007195" height="137.34123741007195" width="395.52" id="textblock"><g><svg viewBox="0 0 395.52 137.34123741007195" height="137.34123741007195" width="395.52"><g transform="matrix(1,0,0,1,0,0)"><svg width="395.52" viewBox="0.5 -35.6 104.24 36.2" height="137.34123741007195" data-palette-color="#ffffff"><path d="M32.9-1.25L28.55 0.5 24.65-9.5 8.45-9.5 4.55 0.4 0.5-1.25 14.2-35 19.4-35 32.9-1.25ZM16.55-30.3L9.95-13.5 23.1-13.5 16.55-30.3ZM46.6 0.6L46.6 0.6Q42.95 0.6 39.95-0.38 36.95-1.35 34.9-2.95L34.9-2.95 37.3-6.95Q39.1-5.45 41.35-4.5 43.6-3.55 46.6-3.55L46.6-3.55Q50.2-3.55 52.3-5.05 54.4-6.55 54.4-9.1L54.4-9.1Q54.4-10.55 53.8-11.68 53.2-12.8 51.47-13.88 49.75-14.95 46.4-16.2L46.4-16.2Q42.8-17.6 40.65-19.03 38.5-20.45 37.57-22.28 36.65-24.1 36.65-26.6L36.65-26.6Q36.65-29.1 38.02-31.13 39.4-33.15 42.07-34.38 44.75-35.6 48.55-35.6L48.55-35.6Q51.65-35.6 54.12-34.98 56.6-34.35 58.95-33.2L58.95-33.2 57.2-29.15Q55.5-30.15 53.22-30.83 50.95-31.5 48.45-31.5L48.45-31.5Q45.15-31.5 43.25-30.2 41.35-28.9 41.35-26.85L41.35-26.85Q41.35-25.55 41.9-24.55 42.45-23.55 44.07-22.6 45.7-21.65 48.95-20.45L48.95-20.45Q52.85-19 55.12-17.4 57.4-15.8 58.35-13.93 59.3-12.05 59.3-9.65L59.3-9.65Q59.3-6.4 57.67-4.1 56.05-1.8 53.17-0.6 50.3 0.6 46.6 0.6ZM78.25 0.6L78.25 0.6Q74.2 0.6 71.05-1.5 67.89-3.6 66.09-7.48 64.3-11.35 64.3-16.6L64.3-16.6Q64.3-22.2 66.2-26.48 68.09-30.75 71.67-33.18 75.25-35.6 80.3-35.6L80.3-35.6Q83.55-35.6 86.09-34.8 88.65-34 90.9-32.75L90.9-32.75 89.15-28.8Q87.05-29.95 84.87-30.7 82.7-31.45 80.05-31.45L80.05-31.45Q76.9-31.45 74.45-29.78 72-28.1 70.57-24.85 69.14-21.6 69.14-16.9L69.14-16.9Q69.14-12.7 70.45-9.73 71.75-6.75 74.05-5.15 76.34-3.55 79.34-3.55L79.34-3.55Q82.15-3.55 84.32-4.73 86.5-5.9 87.75-7.15L87.75-7.15 87.75-14.8 80.5-14.8 80.5-18.55 92.25-18.55 92.25 0 88.05 0 88.05-3.5Q86.3-1.95 83.8-0.68 81.3 0.6 78.25 0.6ZM104.74 0L99.99 0 99.99-35 104.74-35 104.74 0Z" opacity="1" transform="matrix(1,0,0,1,0,0)" fill="#ffffff" class="wordmark-text-0" data-fill-palette-color="primary" id="text-0"></path></svg></g></svg></g></svg></g></svg></g><g transform="matrix(1,0,0,1,88.1213111063416,0)"><svg viewBox="0 0 219.2773777873168 219.2773777873168" height="219.2773777873168" width="219.2773777873168"><g><svg></svg></g><g id="icon-0"><svg viewBox="0 0 219.2773777873168 219.2773777873168" height="219.2773777873168" width="219.2773777873168"><g><path d="M0 109.639c0-60.552 49.087-109.639 109.639-109.639 60.552 0 109.639 49.087 109.638 109.639 0 60.552-49.087 109.639-109.638 109.638-60.552 0-109.639-49.087-109.639-109.638zM109.639 206.892c53.711 0 97.253-43.542 97.253-97.253 0-53.711-43.542-97.253-97.253-97.253-53.711 0-97.253 43.542-97.253 97.253 0 53.711 43.542 97.253 97.253 97.253z" data-fill-palette-color="accent" fill="#ffffff" stroke="transparent"></path></g><g transform="matrix(1,0,0,1,53.582695301109,58.06717478851294)"><svg viewBox="0 0 112.1119871850988 103.14302821029091" height="103.14302821029091" width="112.1119871850988"><g><svg xmlns:x="http://ns.adobe.com/Extensibility/1.0/" xmlns:i="http://ns.adobe.com/AdobeIllustrator/10.0/" xmlns:graph="http://ns.adobe.com/Graphs/1.0/" xmlns="http://www.w3.org/2000/svg" xmlns:xlink="http://www.w3.org/1999/xlink" version="1.1" x="0" y="0" viewBox="7 9 50 46" enable-background="new 0 0 64 64" xml:space="preserve" height="103.14302821029091" width="112.1119871850988" class="icon-dxe-0" data-fill-palette-color="accent" id="dxe-0"><g fill="#ffffff" data-fill-palette-color="accent"><g fill="#ffffff" data-fill-palette-color="accent"><path d="M56 9H8A1 1 0 0 0 7 10V46A1 1 0 0 0 8 47H31V53H22A1 1 0 1 0 22 55H42A1 1 0 1 0 42 53H33V47H56A1 1 0 0 0 57 46V10A1 1 0 0 0 56 9M55 45H9V11H55z" fill="#ffffff" data-fill-palette-color="accent"></path><path d="M23.293 32.707A0.997 0.997 0 0 0 24.707 32.707 1 1 0 0 0 24.707 31.293L21.414 28 24.707 24.707A0.999 0.999 0 1 0 23.293 23.293L19.293 27.293A1 1 0 0 0 19.293 28.707z" fill="#ffffff" data-fill-palette-color="accent"></path><path d="M39.293 32.707A0.997 0.997 0 0 0 40.707 32.707L44.707 28.707A1 1 0 0 0 44.707 27.293L40.707 23.293A0.999 0.999 0 1 0 39.293 24.707L42.586 28 39.293 31.293A1 1 0 0 0 39.293 32.707" fill="#ffffff" data-fill-palette-color="accent"></path><path d="M29.757 36.97A1 1 0 0 0 30.97 36.242L34.97 20.242A1 1 0 0 0 34.242 19.029 0.996 0.996 0 0 0 33.03 19.757L29.03 35.757A1 1 0 0 0 29.757 36.97" fill="#ffffff" data-fill-palette-color="accent"></path></g></g></svg><g></g></g></svg></g></svg></g></svg></g><g></g></svg></g><defs></defs></svg><rect width="231.9828389162153" height="247.2" fill="none" stroke="none" visibility="hidden"></rect></g></svg></g></svg>